<svg width="55" height="55" viewBox="0 0 55 55" fill="none" xmlns="http://www.w3.org/2000/svg">
<path d="M31.625 11C31.625 9.90598 31.1904 8.85677 30.4168 8.08319C29.6432 7.3096 28.594 6.875 27.5 6.875C26.406 6.875 25.3568 7.3096 24.5832 8.08319C23.8096 8.85677 23.375 9.90598 23.375 11H20.625C20.625 9.17664 21.3493 7.42796 22.6386 6.13864C23.928 4.84933 25.6766 4.125 27.5 4.125C29.3234 4.125 31.072 4.84933 32.3614 6.13864C33.6507 7.42796 34.375 9.17664 34.375 11H46.75C47.1147 11 47.4644 11.1449 47.7223 11.4027C47.9801 11.6606 48.125 12.0103 48.125 12.375C48.125 12.7397 47.9801 13.0894 47.7223 13.3473C47.4644 13.6051 47.1147 13.75 46.75 13.75H45.2265L41.6625 44.6325C41.5073 45.9729 40.8649 47.2094 39.8573 48.1069C38.8498 49.0044 37.5475 49.5002 36.1982 49.5H18.8018C17.4525 49.5002 16.1502 49.0044 15.1426 48.1069C14.1351 47.2094 13.4927 45.9729 13.3375 44.6325L9.77075 13.75H8.25C7.92818 13.7501 7.61652 13.6373 7.36929 13.4313C7.12206 13.2253 6.95493 12.9391 6.897 12.6225L6.875 12.375C6.875 12.0103 7.01987 11.6606 7.27773 11.4027C7.53559 11.1449 7.88533 11 8.25 11H31.625ZM42.4545 13.75H12.5427L16.0682 44.3163C16.1459 44.9867 16.4673 45.6051 16.9713 46.0539C17.4754 46.5027 18.1269 46.7505 18.8018 46.75H36.1982C36.8727 46.7498 37.5235 46.5017 38.0269 46.053C38.5304 45.6043 38.8514 44.9862 38.929 44.3163L42.4545 13.75ZM23.375 20.625C24.0487 20.625 24.6125 21.0513 24.728 21.6123L24.75 21.8295V38.6733C24.75 39.336 24.134 39.875 23.375 39.875C22.7013 39.875 22.1375 39.4488 22.022 38.8878L22 38.6705V21.8323C22 21.1668 22.616 20.6278 23.375 20.6278V20.625ZM31.625 20.625C32.2987 20.625 32.8625 21.0513 32.978 21.6123L33 21.8295V38.6733C33 39.336 32.384 39.875 31.625 39.875C30.9513 39.875 30.3875 39.4488 30.272 38.8878L30.25 38.6705V21.8323C30.25 21.1668 30.866 20.6278 31.625 20.6278V20.625Z" fill="#FF0000"/>
<path d="M31.625 11C31.625 9.90598 31.1904 8.85677 30.4168 8.08319C29.6432 7.3096 28.594 6.875 27.5 6.875C26.406 6.875 25.3568 7.3096 24.5832 8.08319C23.8096 8.85677 23.375 9.90598 23.375 11H20.625C20.625 9.17664 21.3493 7.42796 22.6386 6.13864C23.928 4.84933 25.6766 4.125 27.5 4.125C29.3234 4.125 31.072 4.84933 32.3614 6.13864C33.6507 7.42796 34.375 9.17664 34.375 11H46.75C47.1147 11 47.4644 11.1449 47.7223 11.4027C47.9801 11.6606 48.125 12.0103 48.125 12.375C48.125 12.7397 47.9801 13.0894 47.7223 13.3473C47.4644 13.6051 47.1147 13.75 46.75 13.75H45.2265L41.6625 44.6325C41.5073 45.9729 40.8649 47.2094 39.8573 48.1069C38.8498 49.0044 37.5475 49.5002 36.1982 49.5H18.8018C17.4525 49.5002 16.1502 49.0044 15.1426 48.1069C14.1351 47.2094 13.4927 45.9729 13.3375 44.6325L9.77075 13.75H8.25C7.92818 13.7501 7.61652 13.6373 7.36929 13.4313C7.12206 13.2253 6.95493 12.9391 6.897 12.6225L6.875 12.375C6.875 12.0103 7.01987 11.6606 7.27773 11.4027C7.53559 11.1449 7.88533 11 8.25 11H31.625ZM42.4545 13.75H12.5427L16.0682 44.3163C16.1459 44.9867 16.4673 45.6051 16.9713 46.0539C17.4754 46.5027 18.1269 46.7505 18.8018 46.75H36.1982C36.8727 46.7498 37.5235 46.5017 38.0269 46.053C38.5304 45.6043 38.8514 44.9862 38.929 44.3163L42.4545 13.75ZM23.375 20.625C24.0487 20.625 24.6125 21.0513 24.728 21.6123L24.75 21.8295V38.6733C24.75 39.336 24.134 39.875 23.375 39.875C22.7013 39.875 22.1375 39.4488 22.022 38.8878L22 38.6705V21.8323C22 21.1668 22.616 20.6278 23.375 20.6278V20.625ZM31.625 20.625C32.2987 20.625 32.8625 21.0513 32.978 21.6123L33 21.8295V38.6733C33 39.336 32.384 39.875 31.625 39.875C30.9513 39.875 30.3875 39.4488 30.272 38.8878L30.25 38.6705V21.8323C30.25 21.1668 30.866 20.6278 31.625 20.6278V20.625Z" fill="#FF0000"/>
</svg>
